<svg xmlns="http://www.w3.org/2000/svg" width="24" height="24" viewBox="0 0 24 24">
  <g id="outline_chevron-right" data-name="outline/chevron-right" transform="translate(-300 -252)">
    <g id="arrow-right">
      <path id="Vector" d="M.609,14a.606.606,0,0,1-.432-1.034L5.486,7.7a.988.988,0,0,0,0-1.405L.177,1.032a.606.606,0,0,1,0-.856.618.618,0,0,1,.863,0L6.349,5.441A2.19,2.19,0,0,1,7,7a2.157,2.157,0,0,1-.651,1.558L1.04,13.822A.642.642,0,0,1,.609,14Z" transform="translate(309 257)" fill="#2c3e50"/>
      <path id="Vector-2" data-name="Vector" d="M0,0H24V24H0Z" transform="translate(300 252)" fill="none" opacity="0"/>
    </g>
  </g>
</svg>
